<?xml version="1.0" encoding="UTF-8" standalone="no"?>
<!DOCTYPE svg PUBLIC "-//W3C//DTD SVG 1.1//EN" "http://www.w3.org/Graphics/SVG/1.1/DTD/svg11.dtd">
<svg width="100%" height="100%" viewBox="0 0 1024 1024" version="1.1" xmlns="http://www.w3.org/2000/svg" xmlns:xlink="http://www.w3.org/1999/xlink" xml:space="preserve" xmlns:serif="http://www.serif.com/" style="fill-rule:evenodd;clip-rule:evenodd;stroke-linejoin:round;stroke-miterlimit:2;">
    <g id="menu_white" transform="matrix(0.25,0,0,0.25,64,64)">
        <g transform="matrix(1,0,0,1,-256,-256)">
            <g transform="matrix(0.876923,0,0,1,31.5076,0)">
                <path d="M492,236L20,236C8.954,236 0,244.954 0,256C0,267.046 8.954,276 20,276L492,276C503.046,276 512,267.046 512,256C512,244.954 503.046,236 492,236Z" style="fill-rule:nonzero;"/>
            </g>
            <g transform="matrix(0.876923,0,0,1,31.5076,0)">
                <path d="M492,76L20,76C8.954,76 0,84.954 0,96C0,107.046 8.954,116 20,116L492,116C503.046,116 512,107.046 512,96C512,84.954 503.046,76 492,76Z" style="fill-rule:nonzero;"/>
            </g>
            <g transform="matrix(0.876923,0,0,1,31.5076,0)">
                <path d="M492,396L20,396C8.954,396 0,404.954 0,416C0,427.046 8.954,436 20,436L492,436C503.046,436 512,427.046 512,416C512,404.954 503.046,396 492,396Z" style="fill-rule:nonzero;"/>
            </g>
        </g>
    </g>
    <g id="home_white" transform="matrix(0.25,0,0,0.25,192,64)">
        <g transform="matrix(1,0,0,1,-256,-256)">
            <g>
                <path d="M208,495.983L86,495.983C60.636,495.983 40,475.348 40,449.983L40,246.586L27.314,259.272C21.066,265.521 10.935,265.521 4.687,259.272C-1.562,253.024 -1.562,242.893 4.687,236.645L203.675,37.656C232.527,8.804 279.474,8.804 308.325,37.656L507.313,236.644C513.562,242.893 513.562,253.023 507.313,259.271C504.19,262.396 500.095,263.958 496,263.958C491.905,263.958 487.811,262.396 484.687,259.271L472,246.584L472,449.983C472,475.347 451.365,495.983 426,495.983L304,495.983M440,214.584L285.698,60.284C269.323,43.908 242.678,43.908 226.302,60.284L72,214.586L72,449.983C72,457.703 78.28,463.983 86,463.983L176,463.983L176,337.983C176,310.413 198.43,287.983 226,287.983L286,287.983C313.57,287.983 336,310.413 336,337.983L336,463.983L426,463.983C433.72,463.983 440,457.703 440,449.983L440,214.584ZM304,495.983L304,337.983C304,328.058 295.926,319.984 286,319.983L226,319.983C216.074,319.984 208,328.058 208,337.983L208,495.983" style="fill-rule:nonzero;"/>
            </g>
        </g>
    </g>
    <g id="money-bag" transform="matrix(0.266112,0,0,0.266112,448,64)">
        <g transform="matrix(1,0,0,1,-240.5,-240.5)">
            <g>
                <path d="M423.3,274.7C410.7,245.7 393.3,217.6 371.3,191.3C344.7,159.3 318.2,137.9 304.7,128L355.7,33.4C358.2,28.7 357.4,22.9 353.5,19.2C340.3,6.3 326.3,0 310.7,0C296.4,0 283.3,5.4 271.9,10.2C262.9,13.9 254.4,17.5 247.5,17.5C245.4,17.5 243.6,17.2 241.8,16.5C218,7.8 199.7,2.4 182,2.4C159.6,2.4 140.5,11.4 121.8,30.6C117.9,34.6 117.3,40.9 120.4,45.6L175.4,128.7C161.8,138.8 135.8,160 109.7,191.3C87.8,217.6 70.3,245.7 57.7,274.7C41.9,311.2 33.9,349.3 33.9,387.9C33.9,439.2 75.7,481 127,481L354,481C405.3,481 447.1,439.2 447.1,387.9C447.1,349.3 439.1,311.2 423.3,274.7ZM146,40.6C157.6,30.6 168.7,26.2 182,26.2C196.2,26.2 212.2,31 233.5,38.9C237.9,40.5 242.6,41.3 247.4,41.3C259.1,41.3 270.3,36.7 281,32.2C291.3,27.9 301.1,23.8 310.6,23.8C315.2,23.8 321.7,24.6 329.9,30.4L281.9,119.6L198.3,119.6L146,40.6ZM354,457L127,457C88.9,457 57.9,426 57.9,387.9C57.9,323.8 81.4,263 127.6,207.2C156.8,171.9 186.5,150 195.5,143.6L285.3,143.6C294.4,149.9 324,171.9 353.2,207.2C399.5,263 422.9,323.7 422.9,387.9C423.1,426 392.1,457 354,457Z" style="fill-rule:nonzero;"/>
            </g>
        </g>
    </g>
    <g id="location" transform="matrix(0.25,0,0,0.25,576,64)">
        <g transform="matrix(1,0,0,1,-256,-256)">
            <g>
                <path d="M315.108,148.084C315.104,115.661 288.423,88.984 256,88.984C223.574,88.984 196.892,115.666 196.892,148.092C196.892,180.518 223.574,207.2 256,207.2C288.414,207.161 315.073,180.498 315.108,148.084ZM210.892,148.084C210.896,123.342 231.258,102.984 256,102.984C280.746,102.984 301.108,123.346 301.108,148.092C301.108,172.838 280.746,193.2 256,193.2C231.262,193.172 210.916,172.822 210.892,148.084Z" style="fill-rule:nonzero;"/>
                <path d="M493.776,486.78C493.776,485.924 436.248,334.676 436.248,334.676C435.214,331.971 432.604,330.173 429.708,330.172L321.708,330.172C322.368,329.096 323.024,328.052 323.684,326.972C365.24,258.172 386.152,197.988 385.852,148.116C385.852,148.109 385.852,148.101 385.852,148.094C385.852,76.857 327.233,18.238 255.996,18.238C184.767,18.238 126.152,76.843 126.14,148.072C125.84,197.988 146.752,258.18 188.308,326.972C188.968,328.064 189.624,329.108 190.284,330.172L82.284,330.172C79.388,330.173 76.778,331.971 75.744,334.676C75.744,334.676 18.224,485.924 18.224,486.78C18.224,490.616 21.381,493.772 25.216,493.772C25.22,493.772 25.224,493.772 25.228,493.772L486.772,493.772C486.776,493.772 486.78,493.772 486.784,493.772C490.619,493.772 493.776,490.616 493.776,486.78ZM140.144,148.084C140.155,84.535 192.451,32.248 256,32.248C319.557,32.248 371.856,84.547 371.856,148.104C371.856,148.111 371.856,148.117 371.856,148.124C372.456,247.556 279.496,370.192 256,399.6C232.504,370.204 139.54,247.6 140.144,148.084ZM87.112,344.152L199.06,344.152C214.847,368.832 232.079,392.556 250.668,415.2C251.997,416.763 253.948,417.665 256,417.665C258.052,417.665 260.003,416.763 261.332,415.2C279.917,392.559 297.148,368.839 312.932,344.164L424.88,344.164L476.62,479.772L35.388,479.768" style="fill-rule:nonzero;"/>
            </g>
        </g>
    </g>
    <g id="phone_white" transform="matrix(0.249513,0,0,0.249513,832,64)">
        <g transform="matrix(1,0,0,1,-256.5,-256.5)">
            <g>
                <path d="M498.639,395.039L394.993,325.919C381.84,317.218 364.209,320.081 354.485,332.498L324.294,371.316C320.414,376.432 313.361,377.916 307.748,374.798L302.005,371.632C282.967,361.255 259.279,348.336 211.552,300.592C163.825,252.848 150.88,229.142 140.503,210.139L137.354,204.396C134.193,198.784 135.649,191.701 140.767,187.79L179.559,157.608C191.971,147.883 194.838,130.257 186.147,117.1L117.027,13.454C108.12,0.056 90.25,-3.966 76.461,4.323L33.12,30.358C19.502,38.364 9.511,51.33 5.242,66.539C-10.365,123.405 1.376,221.547 145.948,366.136C260.952,481.131 346.567,512.056 405.413,512.056C418.956,512.114 432.446,510.352 445.52,506.817C460.732,502.553 473.7,492.561 481.701,478.939L507.762,435.624C516.063,421.832 512.043,403.951 498.639,395.039ZM493.058,426.868L467.057,470.209C461.312,480.041 451.985,487.27 441.03,490.382C388.533,504.795 296.817,492.857 158.022,354.062C19.227,215.267 7.29,123.559 21.703,71.054C24.819,60.086 32.057,50.747 41.901,44.993L85.242,18.992C91.225,15.392 98.981,17.137 102.846,22.951L140.393,79.322L171.907,126.588C175.681,132.295 174.441,139.944 169.057,144.167L130.256,174.349C118.448,183.378 115.076,199.715 122.346,212.681L125.427,218.279C136.333,238.281 149.892,263.164 199.394,312.658C248.896,362.151 273.771,375.711 293.764,386.616L299.37,389.705C312.335,396.974 328.673,393.603 337.702,381.795L367.884,342.994C372.108,337.613 379.754,336.374 385.463,340.144L489.1,409.264C494.918,413.126 496.663,420.886 493.058,426.868ZM290.161,187.79C313.713,187.818 332.799,206.904 332.828,230.457C332.828,235.17 336.649,238.99 341.361,238.99C346.073,238.99 349.894,235.17 349.894,230.457C349.856,197.483 323.135,170.761 290.161,170.724C285.448,170.724 281.628,174.544 281.628,179.257C281.628,183.97 285.448,187.79 290.161,187.79ZM290.161,136.59C341.977,136.651 383.967,178.641 384.028,230.457C384.028,235.17 387.849,238.99 392.561,238.99C397.274,238.99 401.094,235.17 401.094,230.457C401.023,169.219 351.398,119.594 290.161,119.524C285.448,119.524 281.628,123.344 281.628,128.057C281.628,132.77 285.448,136.59 290.161,136.59ZM290.161,85.39C370.242,85.479 435.138,150.376 435.228,230.457C435.228,235.17 439.048,238.99 443.761,238.99C448.474,238.99 452.294,235.17 452.294,230.457C452.195,140.954 379.664,68.422 290.161,68.324C285.448,68.324 281.628,72.144 281.628,76.857C281.628,81.57 285.448,85.39 290.161,85.39Z" style="fill-rule:nonzero;"/>
            </g>
        </g>
    </g>
    <g id="size" transform="matrix(1.36389,0,0,1.36389,960,64.0007)">
        <g transform="matrix(1,0,0,1,-46.9245,-46.925)">
            <g>
                <g>
                    <path d="M13.36,7.623L62.939,7.623L62.939,10.836L67.347,10.836L67.347,0L62.939,0L62.939,3.215L13.36,3.215L13.36,0L8.949,0L8.949,10.836L13.36,10.836L13.36,7.623Z" style="fill-rule:nonzero;"/>
                    <path d="M85.157,21.524L85.157,17.115L74.319,17.115L74.319,21.524L77.534,21.524L77.534,89.441L74.319,89.441L74.319,93.85L85.157,93.85L85.157,89.441L81.943,89.441L81.943,21.524L85.157,21.524Z" style="fill-rule:nonzero;"/>
                    <path d="M8.693,93.85L67.605,93.85L67.605,17.115L8.693,17.115L8.693,93.85ZM13.47,21.893L62.828,21.893L62.828,89.075L13.47,89.075L13.47,21.893Z" style="fill-rule:nonzero;"/>
                </g>
            </g>
        </g>
    </g>
    <g id="warning" transform="matrix(0.25,0,0,0.25,64,192.001)">
        <g transform="matrix(1,0,0,1,-256,-256)">
            <path d="M322.939,62.642L501.676,372.225C508.231,383.578 512,396.74 512,410.791C512,453.461 477.408,488.055 434.736,488.055L256,488.055L194.189,256L256,23.946C284.62,23.946 309.587,39.519 322.939,62.642Z" style="fill:rgb(59,65,69);fill-rule:nonzero;"/>
            <path d="M189.061,62.642L10.323,372.225C3.769,383.578 0,396.74 0,410.791C0,453.461 34.592,488.055 77.264,488.055L256,488.055L256,23.946C227.38,23.946 202.413,39.519 189.061,62.642Z" style="fill:rgb(82,90,97);fill-rule:nonzero;"/>
            <path d="M474.913,387.678L296.177,78.098C288.121,64.139 273.328,55.331 257.329,54.878L410.198,457.153L434.737,457.153C460.296,457.153 481.095,436.355 481.095,410.795C481.095,402.677 478.952,394.683 474.913,387.678Z" style="fill:rgb(255,183,81);fill-rule:nonzero;"/>
            <path d="M444.853,387.678C448.345,394.683 450.189,402.677 450.189,410.795C450.189,436.354 432.254,457.153 410.197,457.153L77.264,457.153C51.705,457.153 30.906,436.354 30.906,410.795C30.906,402.677 33.049,394.683 37.087,387.678L215.823,78.098C224.106,63.758 239.497,54.847 256,54.847C256.443,54.847 256.886,54.857 257.329,54.878C271.061,55.414 283.743,64.201 290.655,78.098L444.853,387.678Z" style="fill:rgb(255,215,100);fill-rule:nonzero;"/>
            <path d="M256,354.131L256,405.64C270.227,405.64 281.755,394.112 281.755,379.885C281.755,365.659 270.227,354.131 256,354.131Z" style="fill:rgb(59,65,69);fill-rule:nonzero;"/>
            <path d="M256,354.131C258.843,354.131 261.151,365.659 261.151,379.886C261.151,394.113 258.843,405.641 256,405.641C241.773,405.641 230.245,394.113 230.245,379.886C230.245,365.659 241.773,354.131 256,354.131Z" style="fill:rgb(82,90,97);fill-rule:nonzero;"/>
            <path d="M256,132.646L256,323.23C270.227,323.23 281.755,311.692 281.755,297.475L281.755,158.401C281.755,144.174 270.227,132.646 256,132.646Z" style="fill:rgb(59,65,69);fill-rule:nonzero;"/>
            <path d="M256,132.646C258.843,132.646 261.151,144.174 261.151,158.401L261.151,297.475C261.151,311.691 258.843,323.23 256,323.23C241.773,323.23 230.245,311.692 230.245,297.475L230.245,158.401C230.245,144.174 241.773,132.646 256,132.646Z" style="fill:rgb(82,90,97);fill-rule:nonzero;"/>
        </g>
    </g>
    <g id="time" transform="matrix(0.266647,0,0,0.266647,192,192.001)">
        <g transform="matrix(1,0,0,1,-240.018,-240.018)">
            <g>
                <path d="M272.015,448C369.217,448 448.015,369.202 448.015,272C448.015,174.798 369.217,96 272.015,96C174.813,96 96.015,174.798 96.015,272C96.125,369.156 174.858,447.89 272.015,448ZM136.015,264L112.423,264C116.593,182.067 182.082,116.578 264.015,112.408L264.015,136C264.015,140.418 267.597,144 272.015,144C276.433,144 280.015,140.418 280.015,136L280.015,112.408C361.948,116.578 427.437,182.067 431.607,264L400.015,264C395.597,264 392.015,267.582 392.015,272C392.015,276.418 395.597,280 400.015,280L431.607,280C427.437,361.932 361.948,427.422 280.015,431.592L280.015,408C280.015,403.582 276.433,400 272.015,400C267.597,400 264.015,403.582 264.015,408L264.015,431.592C182.083,427.422 116.593,361.933 112.423,280L136.015,280C140.433,280 144.015,276.418 144.015,272C144.015,267.582 140.433,264 136.015,264Z" style="fill-rule:nonzero;"/>
                <path d="M424.297,155.008C469.213,213.514 478.14,295.337 440.462,364.2C389.563,457.224 272.891,491.374 179.866,440.476C147.674,422.862 121.204,396.392 103.59,364.2C102.177,361.685 99.507,360.137 96.622,360.16C96.414,360.16 96.23,360.04 96.014,360.04L48.014,360.04C43.596,360.04 40.014,363.622 40.014,368.04C40.014,372.458 43.596,376.04 48.014,376.04L92.014,376.04C149.425,475.484 276.581,509.56 376.025,452.149C475.47,394.738 509.545,267.582 452.135,168.138C449.75,164.006 447.223,159.958 444.559,156L464.311,136.248C467.434,133.124 467.434,128.06 464.311,124.936L419.111,79.736C415.987,76.613 410.923,76.613 407.799,79.736L388.015,99.456C356.013,77.85 318.601,65.637 280.015,64.2L280.015,16L336.015,16C340.433,16 344.015,12.418 344.015,8C344.015,3.582 340.433,0 336.015,0L208.015,0C203.597,0 200.015,3.582 200.015,8C200.015,12.418 203.597,16 208.015,16L264.015,16L264.015,64.272C192.667,66.996 127.715,106.166 92.015,168L48.015,168C43.597,168 40.015,171.582 40.015,176C40.015,180.418 43.597,184 48.015,184L96.015,184C96.223,184 96.399,183.896 96.607,183.88C99.49,183.917 102.164,182.385 103.591,179.88C154.49,86.856 271.162,52.706 364.187,103.604C373.243,108.559 381.74,114.137 389.656,120.256M389.656,120.256L413.454,96.704L447.342,130.592L424.297,155.008" style="fill-rule:nonzero;"/>
                <path d="M80.015,272C80.015,267.582 76.433,264 72.015,264L8.015,264C3.597,264 0.015,267.582 0.015,272C0.015,276.418 3.597,280 8.015,280L72.015,280C76.433,280 80.015,276.418 80.015,272Z" style="fill-rule:nonzero;"/>
                <path d="M250.359,325.656C253.483,328.779 258.547,328.779 261.671,325.656L372.871,214.456C375.941,211.278 375.853,206.214 372.675,203.144C369.575,200.15 364.66,200.15 361.559,203.144L256.015,308.688L208.415,261.088C205.237,258.019 200.172,258.106 197.103,261.284C194.109,264.384 194.109,269.299 197.103,272.4L250.359,325.656Z" style="fill-rule:nonzero;"/>
            </g>
        </g>
    </g>
    <g id="plus" transform="matrix(0.374927,0,0,0.374927,320,192.001)">
        <g transform="matrix(1,0,0,1,-170.7,-170.7)">
            <g transform="matrix(0.862937,0,0,0.862937,23.3966,23.3966)">
                <path d="M192,149.4L192,0L149.4,0L149.4,149.4L0,149.4L0,192L149.4,192L149.4,341.4L192,341.4L192,192L341.4,192L341.4,149.4L192,149.4Z" style="fill-rule:nonzero;"/>
            </g>
        </g>
    </g>
    <g id="left-arrow" transform="matrix(0.25,0,0,0.25,448,192.001)">
        <g transform="matrix(1,0,0,1,-256,-256)">
            <path d="M432,240L112.808,240L235.032,123.584C241.432,117.488 241.68,107.36 235.584,100.96C229.496,94.568 219.368,94.312 212.96,100.408L73.376,233.368C67.336,239.416 64,247.448 64,256C64,264.544 67.336,272.584 73.656,278.896L212.968,411.584C216.064,414.536 220.032,416 224,416C228.224,416 232.448,414.336 235.592,411.032C241.688,404.632 241.44,394.512 235.04,388.416L112.304,272L432,272C440.832,272 448,264.832 448,256C448,247.168 440.832,240 432,240Z" style="fill-rule:nonzero;"/>
        </g>
    </g>
    <g id="right-arrow" transform="matrix(0.25,0,0,0.25,576,192)">
        <g transform="matrix(1,0,0,1,-256,-256)">
            <path d="M299.032,100.416C292.64,94.328 282.504,94.568 276.416,100.968C270.32,107.368 270.576,117.496 276.968,123.592L399.704,240L80,240C71.168,240 64,247.168 64,256C64,264.832 71.168,272 80,272L399.192,272L276.968,388.416C270.568,394.512 270.32,404.64 276.416,411.04C279.56,414.336 283.776,416 288,416C291.968,416 295.936,414.536 299.032,411.584L438.624,278.624C444.672,272.584 448,264.552 448,256C448,247.448 444.672,239.416 438.344,233.104L299.032,100.416Z" style="fill-rule:nonzero;"/>
        </g>
    </g>
    <g id="magnifiying-glass--1-" serif:id="magnifiying-glass (1)" transform="matrix(0.663542,0,0,0.663542,320,64.0014)">
        <g transform="matrix(1,0,0,1,-96.452,-96.452)">
            <clipPath id="_clip1">
                <rect x="0" y="0" width="192.904" height="192.904"/>
            </clipPath>
            <g clip-path="url(#_clip1)">
                <path d="M190.707,180.101L143.629,133.024C155.331,118.952 162.381,100.882 162.381,81.193C162.381,36.423 125.959,0 81.191,0C36.422,0 0,36.423 0,81.193C0,125.96 36.422,162.38 81.191,162.38C100.879,162.38 118.95,155.331 133.022,143.629L180.101,190.707C181.565,192.172 183.485,192.904 185.404,192.904C187.323,192.904 189.243,192.172 190.708,190.707C193.637,187.778 193.637,183.03 190.707,180.101ZM15,81.193C15,44.694 44.693,15 81.191,15C117.688,15 147.38,44.694 147.38,81.193C147.38,117.689 117.688,147.38 81.191,147.38C44.693,147.38 15,117.689 15,81.193Z" style="fill-rule:nonzero;"/>
            </g>
        </g>
    </g>
    <g id="edit" transform="matrix(0.331079,0,0,0.331079,704,64.0014)">
        <g transform="matrix(1,0,0,1,-193.308,-193.308)">
            <g>
                <g transform="matrix(1,0,0,1,0,9)">
                    <path d="M36.573,309.292L38.663,309.292L139.496,287.349C141.46,287.022 143.28,286.112 144.72,284.737L315.56,113.896C328.04,101.443 335.003,84.505 334.891,66.876C334.914,49.11 327.974,32.043 315.56,19.333C303.108,6.853 286.17,-0.11 268.54,0.003C250.798,-0.154 233.78,7.031 221.52,19.856L51.201,190.696C49.699,191.905 48.604,193.546 48.066,195.398L26.124,296.231C25.525,299.851 26.689,303.539 29.259,306.158C31.188,308.126 33.817,309.253 36.573,309.292ZM268.54,20.901C293.643,20.899 313.994,41.248 313.996,66.351C313.996,66.526 313.995,66.701 313.993,66.876C314.164,78.835 309.446,90.346 300.932,98.745L236.671,33.961C245.137,25.548 256.604,20.848 268.54,20.901ZM222.042,49.113L286.303,113.374L137.405,261.749L73.144,198.01L222.042,49.113ZM64.785,218.909L116.507,270.631L50.156,285.26L64.785,218.909Z" style="fill-rule:nonzero;"/>
                </g>
                <g transform="matrix(1,0,0,1,0,-20)">
                    <path d="M368.328,365.717L18.287,365.717C12.516,365.717 7.838,370.395 7.838,376.166C7.838,381.937 12.516,386.615 18.287,386.615L368.328,386.615C374.099,386.615 378.777,381.937 378.777,376.166C378.777,370.395 374.099,365.717 368.328,365.717Z" style="fill-rule:nonzero;"/>
                </g>
            </g>
        </g>
    </g>
    <g id="delete" transform="matrix(0.299766,0,0,0.299766,704,192.001)">
        <g transform="matrix(1,0,0,1,-213.5,-213.5)">
            <clipPath id="_clip2">
                <rect x="0" y="0" width="427" height="427"/>
            </clipPath>
            <g clip-path="url(#_clip2)">
                <g transform="matrix(1,0,0,1,-17,0)">
                    <path d="M272.398,154.703C266.875,154.703 262.398,159.179 262.398,164.703L262.398,353.702C262.398,359.222 266.875,363.702 272.398,363.702C277.922,363.702 282.398,359.222 282.398,353.702L282.398,164.703C282.398,159.179 277.922,154.703 272.398,154.703Z" style="fill-rule:nonzero;"/>
                </g>
                <g transform="matrix(1,0,0,1,17,0)">
                    <path d="M154.399,154.703C148.875,154.703 144.399,159.179 144.399,164.703L144.399,353.702C144.399,359.222 148.875,363.702 154.399,363.702C159.922,363.702 164.399,359.222 164.399,353.702L164.399,164.703C164.399,159.179 159.922,154.703 154.399,154.703Z" style="fill-rule:nonzero;"/>
                </g>
                <path d="M68.399,127.121L68.399,373.499C68.399,388.061 73.739,401.737 83.067,411.55C92.352,421.389 105.274,426.975 118.797,426.999L308,426.999C321.527,426.975 334.449,421.389 343.73,411.55C353.058,401.737 358.398,388.061 358.398,373.499L358.398,127.121C376.941,122.199 388.956,104.285 386.476,85.258C383.992,66.234 367.785,52.004 348.597,52L297.398,52L297.398,39.5C297.457,28.988 293.301,18.894 285.859,11.469C278.418,4.047 268.308,-0.086 257.797,0L169,0C158.488,-0.086 148.379,4.047 140.938,11.469C133.496,18.894 129.34,28.988 129.399,39.5L129.399,52L78.2,52C59.012,52.004 42.805,66.234 40.321,85.258C37.84,104.285 49.856,122.199 68.399,127.121ZM308,406.999L118.797,406.999C101.7,406.999 88.399,392.311 88.399,373.499L88.399,128L338.398,128L338.398,373.499C338.398,392.311 325.097,406.999 308,406.999ZM149.399,39.5C149.332,34.293 151.379,29.281 155.074,25.605C158.766,21.93 163.789,19.91 169,20L257.797,20C263.008,19.91 268.031,21.93 271.722,25.605C275.418,29.277 277.465,34.293 277.398,39.5L277.398,52L149.399,52L149.399,39.5ZM78.2,72L348.597,72C358.539,72 366.597,80.058 366.597,90C366.597,99.941 358.539,108 348.597,108L78.2,108C68.258,108 60.2,99.941 60.2,90C60.2,80.058 68.258,72 78.2,72Z" style="fill-rule:nonzero;"/>
            </g>
        </g>
    </g>
    <g id="close" transform="matrix(0.25,0,0,0.25,832,192.001)">
        <g transform="matrix(1,0,0,1,-256,-256)">
            <g transform="matrix(0.822378,0,0,0.822378,45.4713,45.4713)">
                <path d="M512,30.166L481.834,0L256,225.834L30.166,0L0,30.166L225.834,256L0,481.834L30.166,512L256,286.166L481.834,512L512,481.834L286.166,256L512,30.166Z" style="fill-rule:nonzero;"/>
            </g>
        </g>
    </g>
    <g id="account" transform="matrix(0.25,0,0,0.25,960,192.001)">
        <g transform="matrix(1,0,0,1,-256,-256)">
            <g transform="matrix(0.93986,0,0,0.93986,15.3958,15.3958)">
                <path d="M512,256C512,114.512 397.504,0 256,0C114.512,0 0,114.496 0,256C0,396.234 113.539,512 256,512C397.875,512 512,396.879 512,256ZM256,30C380.617,30 482,131.383 482,256C482,301.586 468.441,345.402 443.297,382.516C342.328,273.906 169.855,273.711 68.703,382.516C43.559,345.402 30,301.586 30,256C30,131.383 131.383,30 256,30ZM87.414,406.5C177.188,305.805 334.836,305.828 424.582,406.5C334.508,507.273 177.527,507.305 87.414,406.5Z" style="fill-rule:nonzero;"/>
            </g>
            <g transform="matrix(0.93986,0,0,0.93986,15.3958,15.3958)">
                <path d="M256,271C305.625,271 346,230.625 346,181L346,151C346,101.375 305.625,61 256,61C206.375,61 166,101.375 166,151L166,181C166,230.625 206.375,271 256,271ZM196,151C196,117.914 222.914,91 256,91C289.086,91 316,117.914 316,151L316,181C316,214.086 289.086,241 256,241C222.914,241 196,214.086 196,181L196,151Z" style="fill-rule:nonzero;"/>
            </g>
        </g>
    </g>
    <g id="facebook" transform="matrix(0.25,0,0,0.25,64,320.001)">
        <g transform="matrix(1,0,0,1,-256,-256)">
            <path d="M448,0L64,0C28.704,0 0,28.704 0,64L0,448C0,483.296 28.704,512 64,512L448,512C483.296,512 512,483.296 512,448L512,64C512,28.704 483.296,0 448,0Z" style="fill:rgb(25,118,210);fill-rule:nonzero;"/>
            <path d="M432,256L352,256L352,192C352,174.336 366.336,176 384,176L416,176L416,96L352,96C298.976,96 256,138.976 256,192L256,256L192,256L192,336L256,336L256,512L352,512L352,336L400,336L432,256Z" style="fill:rgb(250,250,250);fill-rule:nonzero;"/>
        </g>
    </g>
</svg>
